<?xml version="1.0" encoding="UTF-8" standalone="no"?>
<svg
   xmlns:dc="http://purl.org/dc/elements/1.1/"
   xmlns:cc="http://creativecommons.org/ns#"
   xmlns:rdf="http://www.w3.org/1999/02/22-rdf-syntax-ns#"
   xmlns:svg="http://www.w3.org/2000/svg"
   xmlns="http://www.w3.org/2000/svg"
   xmlns:sodipodi="http://sodipodi.sourceforge.net/DTD/sodipodi-0.dtd"
   xmlns:inkscape="http://www.inkscape.org/namespaces/inkscape"
   version="1.1"
   width="612"
   height="792"
   id="svg12"
   viewBox="0 0 612 792"
   sodipodi:docname="Lucqax.cdr">
  <metadata
     id="metadata18">
    <rdf:RDF>
      <cc:Work
         rdf:about="">
        <dc:format>image/svg+xml</dc:format>
        <dc:type
           rdf:resource="http://purl.org/dc/dcmitype/StillImage" />
      </cc:Work>
    </rdf:RDF>
  </metadata>
  <defs
     id="defs16" />
  <sodipodi:namedview
     pagecolor="#ffffff"
     bordercolor="#666666"
     borderopacity="1"
     objecttolerance="10"
     gridtolerance="10"
     guidetolerance="10"
     inkscape:pageopacity="0"
     inkscape:pageshadow="2"
     inkscape:window-width="640"
     inkscape:window-height="480"
     id="namedview14" />
  <g
     id="Layer1000">
    <g
       id="Layer1001">
      <path
         d="m 323.3801,382.2418 c -0.2495,1.7886 -0.3742,3.0991 -0.3742,3.9311 v 39.7462 h -7.4877 v -14.4136 c -1.9968,0.7073 -3.9101,1.0607 -5.7405,1.0607 -4.2845,0 -7.9242,-1.5494 -10.9193,-4.6485 -2.9951,-3.0988 -4.4924,-6.9987 -4.4924,-11.6991 0,-4.8255 1.5285,-8.7356 4.5859,-11.7307 3.0575,-2.9948 7.1238,-4.4923 12.1987,-4.4923 4.0348,0 8.1113,0.7486 12.2295,2.2462 z m -7.7996,5.0541 c -1.4975,-0.5408 -3.0364,-0.8112 -4.6173,-0.8112 -2.787,0 -4.8875,0.9776 -6.302,2.9327 -1.2895,1.7053 -1.9341,3.9932 -1.9341,6.8635 0,2.704 0.7798,5.0125 2.3397,6.9259 1.5599,1.9137 3.6712,2.8704 6.3332,2.8704 1.4559,0 2.8287,-0.2912 4.1182,-0.8737 v -16.7221 c 0,-0.2911 0.0209,-0.6863 0.0623,-1.1855 z m 36.6322,22.8371 c -5.3244,1.6222 -9.7546,2.4332 -13.2903,2.4332 -3.6606,0 -6.7388,-0.6655 -9.2347,-1.9967 -3.1615,-1.7053 -4.7421,-4.2012 -4.7421,-7.4874 0,-3.619 1.664,-6.2603 4.9916,-7.9243 1.3311,-0.6655 4.4509,-1.5392 9.3594,-2.6206 3.3279,-0.7489 4.9918,-1.8096 4.9918,-3.1822 0,-1.9136 -1.747,-2.8703 -5.2413,-2.8703 -2.8703,0 -5.7611,0.6239 -8.6731,1.872 l -2.5583,-5.6781 c 3.9104,-1.7887 8.0076,-2.683 12.2922,-2.683 3.5356,0 6.3227,0.7903 8.361,2.3709 2.2048,1.7473 3.3069,4.3469 3.3069,7.7995 v 16.0359 c 0,0.7903 0.1457,2.1007 0.4369,3.9311 z m -7.7996,-4.6797 c -0.083,-0.5409 -0.1247,-0.936 -0.1247,-1.1858 v -7.6745 c -0.6239,0.6239 -1.955,1.1648 -3.9934,1.6223 -2.5373,0.5822 -4.1389,1.019 -4.8045,1.3101 -1.5392,0.7073 -2.3085,1.7057 -2.3085,2.9951 0,2.5376 1.9341,3.8061 5.8028,3.8061 1.7886,0 3.598,-0.2911 5.4283,-0.8733 z m 41.374,6.4267 H 376.49 l -7.9243,-10.7946 -7.5498,10.7946 h -8.9852 l 12.105,-16.4104 -11.4808,-14.7877 h 9.172 l 7.6125,10.233 6.8011,-10.233 h 8.8603 l -11.1688,15.8485 z"
         style="fill:#448fa2;fill-rule:evenodd"
         id="path2" />
      <path
         d="m 239.3161,411.4431 c -2.1628,0.749 -4.2429,1.1231 -6.2396,1.1231 -4.5757,0 -6.8636,-2.1631 -6.8636,-6.489 v -39.996 h 7.4878 v 38.2487 c 0,1.2898 0.4991,1.9344 1.4972,1.9344 0.4992,0 1.2898,-0.2288 2.3712,-0.6863 z m 26.7735,-1.9967 c -5.8238,2.0801 -10.5452,3.1198 -14.1642,3.1198 -9.068,0 -13.6023,-3.702 -13.6023,-11.1064 v -20.7779 h 7.4877 v 19.5925 c 0,3.8267 2.0591,5.7404 6.177,5.7404 1.7473,0 3.848,-0.4575 6.3023,-1.3728 -0.0834,-0.6239 -0.125,-1.0607 -0.125,-1.3102 v -22.6499 h 7.4877 v 24.3969 c 0,0.915 0.1454,2.3709 0.4368,4.3676 z m 28.0213,0.936 c -3.2448,1.4559 -6.4477,2.1838 -9.6091,2.1838 -4.8668,0 -8.9122,-1.4975 -12.136,-4.4923 -3.2238,-2.9951 -4.8356,-6.9262 -4.8356,-11.793 0,-4.8254 1.5077,-8.7457 4.5235,-11.7618 3.0158,-3.0158 6.9364,-4.5235 11.7618,-4.5235 3.4943,0 6.9259,0.7279 10.2954,2.1838 l -2.2464,6.0525 c -2.9534,-1.1647 -5.4907,-1.7472 -7.6122,-1.7472 -2.6623,0 -4.7837,0.9255 -6.3646,2.7768 -1.5806,1.851 -2.3709,4.1284 -2.3709,6.8323 0,2.8284 0.8631,5.1996 2.5894,7.113 1.7263,1.9137 4.0037,2.8704 6.8324,2.8704 1.872,0 4.2012,-0.5199 6.9882,-1.5599 z"
         style="fill:#10263e;fill-rule:evenodd"
         id="path4" />
    </g>
    <path
       d="m 382.065,401.5852 -25.8893,-0.1084 13.2504,-14.2685 z"
       style="fill:#ffffff;fill-rule:evenodd"
       id="path7" />
    <path
       d="m 377.14,399.7166 -16.0393,-0.0724 8.2091,-9.5342 z"
       style="fill:#10263e;fill-rule:evenodd"
       id="path9" />
  </g>
</svg>
